<svg id="visual" viewBox="0 0 960 150" width="960" height="150" xmlns="http://www.w3.org/2000/svg" xmlns:xlink="http://www.w3.org/1999/xlink" version="1.1"><path d="M0 42L7.7 38.7C15.3 35.3 30.7 28.7 45.8 32.3C61 36 76 50 91.2 52.8C106.3 55.7 121.7 47.3 137 40.3C152.3 33.3 167.7 27.7 183 24.3C198.3 21 213.7 20 228.8 18C244 16 259 13 274.2 15C289.3 17 304.7 24 320 26.8C335.3 29.7 350.7 28.3 365.8 34.2C381 40 396 53 411.2 55.2C426.3 57.3 441.7 48.7 457 39.7C472.3 30.7 487.7 21.3 503 15.2C518.3 9 533.7 6 548.8 17.2C564 28.3 579 53.7 594.2 59.3C609.3 65 624.7 51 640 41.8C655.3 32.7 670.7 28.3 685.8 31.2C701 34 716 44 731.2 45.7C746.3 47.3 761.7 40.7 777 41.7C792.3 42.7 807.7 51.3 823 49.3C838.3 47.3 853.7 34.7 868.8 25.3C884 16 899 10 914.2 18.3C929.3 26.7 944.7 49.3 952.3 60.7L960 72L960 0L952.3 0C944.7 0 929.3 0 914.2 0C899 0 884 0 868.8 0C853.7 0 838.3 0 823 0C807.7 0 792.3 0 777 0C761.7 0 746.3 0 731.2 0C716 0 701 0 685.8 0C670.7 0 655.3 0 640 0C624.7 0 609.3 0 594.2 0C579 0 564 0 548.8 0C533.7 0 518.3 0 503 0C487.7 0 472.3 0 457 0C441.7 0 426.3 0 411.2 0C396 0 381 0 365.8 0C350.7 0 335.3 0 320 0C304.7 0 289.3 0 274.2 0C259 0 244 0 228.8 0C213.7 0 198.3 0 183 0C167.7 0 152.3 0 137 0C121.7 0 106.3 0 91.2 0C76 0 61 0 45.8 0C30.7 0 15.3 0 7.7 0L0 0Z" fill="#582f0e"></path><path d="M0 45L7.7 43.2C15.3 41.3 30.7 37.7 45.8 41.2C61 44.7 76 55.3 91.2 57.7C106.3 60 121.7 54 137 46.7C152.3 39.3 167.7 30.7 183 27.7C198.3 24.7 213.7 27.3 228.8 27.7C244 28 259 26 274.2 29C289.3 32 304.7 40 320 40.7C335.3 41.3 350.7 34.7 365.8 38.7C381 42.7 396 57.3 411.2 60.8C426.3 64.3 441.7 56.7 457 48.8C472.3 41 487.7 33 503 27.5C518.3 22 533.7 19 548.8 30C564 41 579 66 594.2 71.5C609.3 77 624.7 63 640 52.8C655.3 42.7 670.7 36.3 685.8 37.7C701 39 716 48 731.2 49.2C746.3 50.3 761.7 43.7 777 46.7C792.3 49.7 807.7 62.3 823 62.7C838.3 63 853.7 51 868.8 41.2C884 31.3 899 23.7 914.2 30.2C929.3 36.7 944.7 57.3 952.3 67.7L960 78L960 70L952.3 58.7C944.7 47.3 929.3 24.7 914.2 16.3C899 8 884 14 868.8 23.3C853.7 32.7 838.3 45.3 823 47.3C807.7 49.3 792.3 40.7 777 39.7C761.7 38.7 746.3 45.3 731.2 43.7C716 42 701 32 685.8 29.2C670.7 26.3 655.3 30.7 640 39.8C624.7 49 609.3 63 594.2 57.3C579 51.7 564 26.3 548.8 15.2C533.7 4 518.3 7 503 13.2C487.7 19.3 472.3 28.7 457 37.7C441.7 46.7 426.3 55.3 411.2 53.2C396 51 381 38 365.8 32.2C350.7 26.3 335.3 27.7 320 24.8C304.7 22 289.3 15 274.2 13C259 11 244 14 228.8 16C213.7 18 198.3 19 183 22.3C167.7 25.7 152.3 31.3 137 38.3C121.7 45.3 106.3 53.7 91.2 50.8C76 48 61 34 45.8 30.3C30.7 26.7 15.3 33.3 7.7 36.7L0 40Z" fill="#5f3613"></path><path d="M0 86L7.7 80.8C15.3 75.7 30.7 65.3 45.8 66C61 66.7 76 78.3 91.2 83.3C106.3 88.3 121.7 86.7 137 88.3C152.3 90 167.7 95 183 91.5C198.3 88 213.7 76 228.8 68.8C244 61.7 259 59.3 274.2 59.7C289.3 60 304.7 63 320 63.2C335.3 63.3 350.7 60.7 365.8 63.7C381 66.7 396 75.3 411.2 77.2C426.3 79 441.7 74 457 69.2C472.3 64.3 487.7 59.7 503 59.8C518.3 60 533.7 65 548.8 71.8C564 78.7 579 87.3 594.2 84.3C609.3 81.3 624.7 66.7 640 61.3C655.3 56 670.7 60 685.8 67.5C701 75 716 86 731.2 86.5C746.3 87 761.7 77 777 76C792.3 75 807.7 83 823 82.5C838.3 82 853.7 73 868.8 67.8C884 62.7 899 61.3 914.2 66.2C929.3 71 944.7 82 952.3 87.5L960 93L960 76L952.3 65.7C944.7 55.3 929.3 34.7 914.2 28.2C899 21.7 884 29.3 868.8 39.2C853.7 49 838.3 61 823 60.7C807.7 60.3 792.3 47.7 777 44.7C761.7 41.7 746.3 48.3 731.2 47.2C716 46 701 37 685.8 35.7C670.7 34.3 655.3 40.7 640 50.8C624.7 61 609.3 75 594.2 69.5C579 64 564 39 548.8 28C533.7 17 518.3 20 503 25.5C487.7 31 472.3 39 457 46.8C441.7 54.7 426.3 62.3 411.2 58.8C396 55.3 381 40.7 365.8 36.7C350.7 32.7 335.3 39.3 320 38.7C304.7 38 289.3 30 274.2 27C259 24 244 26 228.8 25.7C213.7 25.3 198.3 22.7 183 25.7C167.7 28.7 152.3 37.3 137 44.7C121.7 52 106.3 58 91.2 55.7C76 53.3 61 42.7 45.8 39.2C30.7 35.7 15.3 39.3 7.7 41.2L0 43Z" fill="#663c18"></path><path d="M0 108L7.7 100.2C15.3 92.3 30.7 76.7 45.8 73.7C61 70.7 76 80.3 91.2 87.5C106.3 94.7 121.7 99.3 137 102.3C152.3 105.3 167.7 106.7 183 102.5C198.3 98.3 213.7 88.7 228.8 82.8C244 77 259 75 274.2 74.8C289.3 74.7 304.7 76.3 320 76.7C335.3 77 350.7 76 365.8 78.2C381 80.3 396 85.7 411.2 88.2C426.3 90.7 441.7 90.3 457 87.7C472.3 85 487.7 80 503 79.2C518.3 78.3 533.7 81.7 548.8 86.2C564 90.7 579 96.3 594.2 94.7C609.3 93 624.7 84 640 82.2C655.3 80.3 670.7 85.7 685.8 90.5C701 95.3 716 99.7 731.2 98.8C746.3 98 761.7 92 777 92.8C792.3 93.7 807.7 101.3 823 98.5C838.3 95.7 853.7 82.3 868.8 74.8C884 67.3 899 65.7 914.2 72.3C929.3 79 944.7 94 952.3 101.5L960 109L960 91L952.3 85.5C944.7 80 929.3 69 914.2 64.2C899 59.3 884 60.7 868.8 65.8C853.7 71 838.3 80 823 80.5C807.7 81 792.3 73 777 74C761.7 75 746.3 85 731.2 84.5C716 84 701 73 685.8 65.5C670.7 58 655.3 54 640 59.3C624.7 64.7 609.3 79.3 594.2 82.3C579 85.3 564 76.7 548.8 69.8C533.7 63 518.3 58 503 57.8C487.7 57.7 472.3 62.3 457 67.2C441.7 72 426.3 77 411.2 75.2C396 73.3 381 64.7 365.8 61.7C350.7 58.7 335.3 61.3 320 61.2C304.7 61 289.3 58 274.2 57.7C259 57.3 244 59.7 228.8 66.8C213.7 74 198.3 86 183 89.5C167.7 93 152.3 88 137 86.3C121.7 84.7 106.3 86.3 91.2 81.3C76 76.3 61 64.7 45.8 64C30.7 63.3 15.3 73.7 7.7 78.8L0 84Z" fill="#6e431e"></path><path d="M0 111L7.7 105C15.3 99 30.7 87 45.8 86.2C61 85.3 76 95.7 91.2 101.8C106.3 108 121.7 110 137 111.3C152.3 112.7 167.7 113.3 183 110.8C198.3 108.3 213.7 102.7 228.8 97.7C244 92.7 259 88.3 274.2 85.2C289.3 82 304.7 80 320 81.7C335.3 83.3 350.7 88.7 365.8 93.8C381 99 396 104 411.2 104.5C426.3 105 441.7 101 457 98C472.3 95 487.7 93 503 93.8C518.3 94.7 533.7 98.3 548.8 102.7C564 107 579 112 594.2 110.5C609.3 109 624.7 101 640 96.7C655.3 92.3 670.7 91.7 685.8 95.2C701 98.7 716 106.3 731.2 109.2C746.3 112 761.7 110 777 110C792.3 110 807.7 112 823 108.7C838.3 105.3 853.7 96.7 868.8 90.7C884 84.7 899 81.3 914.2 87.2C929.3 93 944.7 108 952.3 115.5L960 123L960 107L952.3 99.5C944.7 92 929.3 77 914.2 70.3C899 63.7 884 65.3 868.8 72.8C853.7 80.3 838.3 93.7 823 96.5C807.7 99.3 792.3 91.7 777 90.8C761.7 90 746.3 96 731.2 96.8C716 97.7 701 93.3 685.8 88.5C670.7 83.7 655.3 78.3 640 80.2C624.7 82 609.3 91 594.2 92.7C579 94.3 564 88.7 548.8 84.2C533.7 79.7 518.3 76.3 503 77.2C487.7 78 472.3 83 457 85.7C441.7 88.3 426.3 88.7 411.2 86.2C396 83.7 381 78.3 365.8 76.2C350.7 74 335.3 75 320 74.7C304.7 74.3 289.3 72.7 274.2 72.8C259 73 244 75 228.8 80.8C213.7 86.7 198.3 96.3 183 100.5C167.7 104.7 152.3 103.3 137 100.3C121.7 97.3 106.3 92.7 91.2 85.5C76 78.3 61 68.7 45.8 71.7C30.7 74.7 15.3 90.3 7.7 98.2L0 106Z" fill="#754a23"></path><path d="M0 130L7.7 124C15.3 118 30.7 106 45.8 103.8C61 101.7 76 109.3 91.2 113.8C106.3 118.3 121.7 119.7 137 120.2C152.3 120.7 167.7 120.3 183 116.7C198.3 113 213.7 106 228.8 101.7C244 97.3 259 95.7 274.2 94.3C289.3 93 304.7 92 320 93.3C335.3 94.7 350.7 98.3 365.8 103.7C381 109 396 116 411.2 118C426.3 120 441.7 117 457 113.8C472.3 110.7 487.7 107.3 503 105.5C518.3 103.7 533.7 103.3 548.8 108.5C564 113.7 579 124.3 594.2 125.8C609.3 127.3 624.7 119.7 640 115.3C655.3 111 670.7 110 685.8 111.5C701 113 716 117 731.2 118.3C746.3 119.7 761.7 118.3 777 120.3C792.3 122.3 807.7 127.7 823 123.3C838.3 119 853.7 105 868.8 98.8C884 92.7 899 94.3 914.2 101.3C929.3 108.3 944.7 120.7 952.3 126.8L960 133L960 121L952.3 113.5C944.7 106 929.3 91 914.2 85.2C899 79.3 884 82.7 868.8 88.7C853.7 94.7 838.3 103.3 823 106.7C807.7 110 792.3 108 777 108C761.7 108 746.3 110 731.2 107.2C716 104.3 701 96.7 685.8 93.2C670.7 89.7 655.3 90.3 640 94.7C624.7 99 609.3 107 594.2 108.5C579 110 564 105 548.8 100.7C533.7 96.3 518.3 92.7 503 91.8C487.7 91 472.3 93 457 96C441.7 99 426.3 103 411.2 102.5C396 102 381 97 365.8 91.8C350.7 86.7 335.3 81.3 320 79.7C304.7 78 289.3 80 274.2 83.2C259 86.3 244 90.7 228.8 95.7C213.7 100.7 198.3 106.3 183 108.8C167.7 111.3 152.3 110.7 137 109.3C121.7 108 106.3 106 91.2 99.8C76 93.7 61 83.3 45.8 84.2C30.7 85 15.3 97 7.7 103L0 109Z" fill="#7c5128"></path><path d="M0 144L7.7 138C15.3 132 30.7 120 45.8 118.2C61 116.3 76 124.7 91.2 129.7C106.3 134.7 121.7 136.3 137 136.7C152.3 137 167.7 136 183 129.7C198.3 123.3 213.7 111.7 228.8 106.2C244 100.7 259 101.3 274.2 102.7C289.3 104 304.7 106 320 109.2C335.3 112.3 350.7 116.7 365.8 121.2C381 125.7 396 130.3 411.2 131.8C426.3 133.3 441.7 131.7 457 129.7C472.3 127.7 487.7 125.3 503 122.7C518.3 120 533.7 117 548.8 119.5C564 122 579 130 594.2 130C609.3 130 624.7 122 640 119.2C655.3 116.3 670.7 118.7 685.8 120.3C701 122 716 123 731.2 122.3C746.3 121.7 761.7 119.3 777 122.2C792.3 125 807.7 133 823 129.5C838.3 126 853.7 111 868.8 104C884 97 899 98 914.2 106.7C929.3 115.3 944.7 131.7 952.3 139.8L960 148L960 131L952.3 124.8C944.7 118.7 929.3 106.3 914.2 99.3C899 92.3 884 90.7 868.8 96.8C853.7 103 838.3 117 823 121.3C807.7 125.7 792.3 120.3 777 118.3C761.7 116.3 746.3 117.7 731.2 116.3C716 115 701 111 685.8 109.5C670.7 108 655.3 109 640 113.3C624.7 117.7 609.3 125.3 594.2 123.8C579 122.3 564 111.7 548.8 106.5C533.7 101.3 518.3 101.7 503 103.5C487.7 105.3 472.3 108.7 457 111.8C441.7 115 426.3 118 411.2 116C396 114 381 107 365.8 101.7C350.7 96.3 335.3 92.7 320 91.3C304.7 90 289.3 91 274.2 92.3C259 93.7 244 95.3 228.8 99.7C213.7 104 198.3 111 183 114.7C167.7 118.3 152.3 118.7 137 118.2C121.7 117.7 106.3 116.3 91.2 111.8C76 107.3 61 99.7 45.8 101.8C30.7 104 15.3 116 7.7 122L0 128Z" fill="#84582e"></path><path d="M0 148L7.7 144.8C15.3 141.7 30.7 135.3 45.8 135.7C61 136 76 143 91.2 145.2C106.3 147.3 121.7 144.7 137 143.3C152.3 142 167.7 142 183 140.8C198.3 139.7 213.7 137.3 228.8 135.7C244 134 259 133 274.2 131.5C289.3 130 304.7 128 320 129.7C335.3 131.3 350.7 136.7 365.8 139.8C381 143 396 144 411.2 143.8C426.3 143.7 441.7 142.3 457 142.3C472.3 142.3 487.7 143.7 503 140.7C518.3 137.7 533.7 130.3 548.8 130.7C564 131 579 139 594.2 141.7C609.3 144.3 624.7 141.7 640 140.8C655.3 140 670.7 141 685.8 140.8C701 140.7 716 139.3 731.2 139.3C746.3 139.3 761.7 140.7 777 141.3C792.3 142 807.7 142 823 140C838.3 138 853.7 134 868.8 130.5C884 127 899 124 914.2 127.3C929.3 130.7 944.7 140.3 952.3 145.2L960 150L960 146L952.3 137.8C944.7 129.7 929.3 113.3 914.2 104.7C899 96 884 95 868.8 102C853.7 109 838.3 124 823 127.5C807.7 131 792.3 123 777 120.2C761.7 117.3 746.3 119.7 731.2 120.3C716 121 701 120 685.8 118.3C670.7 116.7 655.3 114.3 640 117.2C624.7 120 609.3 128 594.2 128C579 128 564 120 548.8 117.5C533.7 115 518.3 118 503 120.7C487.7 123.3 472.3 125.7 457 127.7C441.7 129.7 426.3 131.3 411.2 129.8C396 128.3 381 123.7 365.8 119.2C350.7 114.7 335.3 110.3 320 107.2C304.7 104 289.3 102 274.2 100.7C259 99.3 244 98.7 228.8 104.2C213.7 109.7 198.3 121.3 183 127.7C167.7 134 152.3 135 137 134.7C121.7 134.3 106.3 132.7 91.2 127.7C76 122.7 61 114.3 45.8 116.2C30.7 118 15.3 130 7.7 136L0 142Z" fill="#8b5f33"></path><path d="M0 151L7.7 151C15.3 151 30.7 151 45.8 151C61 151 76 151 91.2 151C106.3 151 121.7 151 137 151C152.3 151 167.7 151 183 151C198.3 151 213.7 151 228.8 151C244 151 259 151 274.2 151C289.3 151 304.7 151 320 151C335.3 151 350.7 151 365.8 151C381 151 396 151 411.2 151C426.3 151 441.7 151 457 151C472.3 151 487.7 151 503 151C518.3 151 533.7 151 548.8 151C564 151 579 151 594.2 151C609.3 151 624.7 151 640 151C655.3 151 670.7 151 685.8 151C701 151 716 151 731.2 151C746.3 151 761.7 151 777 151C792.3 151 807.7 151 823 151C838.3 151 853.7 151 868.8 151C884 151 899 151 914.2 151C929.3 151 944.7 151 952.3 151L960 151L960 148L952.3 143.2C944.7 138.3 929.3 128.7 914.2 125.3C899 122 884 125 868.8 128.5C853.7 132 838.3 136 823 138C807.7 140 792.3 140 777 139.3C761.7 138.7 746.3 137.3 731.2 137.3C716 137.3 701 138.7 685.8 138.8C670.7 139 655.3 138 640 138.8C624.7 139.7 609.3 142.3 594.2 139.7C579 137 564 129 548.8 128.7C533.7 128.3 518.3 135.7 503 138.7C487.7 141.7 472.3 140.3 457 140.3C441.7 140.3 426.3 141.7 411.2 141.8C396 142 381 141 365.8 137.8C350.7 134.7 335.3 129.3 320 127.7C304.7 126 289.3 128 274.2 129.5C259 131 244 132 228.8 133.7C213.7 135.3 198.3 137.7 183 138.8C167.7 140 152.3 140 137 141.3C121.7 142.7 106.3 145.3 91.2 143.2C76 141 61 134 45.8 133.7C30.7 133.3 15.3 139.7 7.7 142.8L0 146Z" fill="#936639"></path></svg>