<svg id="visual" viewBox="0 0 960 150" width="960" height="150" xmlns="http://www.w3.org/2000/svg" xmlns:xlink="http://www.w3.org/1999/xlink" version="1.1"><path d="M0 12L10.7 14C21.3 16 42.7 20 64 19C85.3 18 106.7 12 128 15.5C149.3 19 170.7 32 192 34.7C213.3 37.3 234.7 29.7 256 26.8C277.3 24 298.7 26 320 31.5C341.3 37 362.7 46 384 52.8C405.3 59.7 426.7 64.3 448 72.5C469.3 80.7 490.7 92.3 512 90.3C533.3 88.3 554.7 72.7 576 60.3C597.3 48 618.7 39 640 31C661.3 23 682.7 16 704 12.5C725.3 9 746.7 9 768 11.2C789.3 13.3 810.7 17.7 832 24.2C853.3 30.7 874.7 39.3 896 38.8C917.3 38.3 938.7 28.7 949.3 23.8L960 19L960 0L949.3 0C938.7 0 917.3 0 896 0C874.7 0 853.3 0 832 0C810.7 0 789.3 0 768 0C746.7 0 725.3 0 704 0C682.7 0 661.3 0 640 0C618.7 0 597.3 0 576 0C554.7 0 533.3 0 512 0C490.7 0 469.3 0 448 0C426.7 0 405.3 0 384 0C362.7 0 341.3 0 320 0C298.7 0 277.3 0 256 0C234.7 0 213.3 0 192 0C170.7 0 149.3 0 128 0C106.7 0 85.3 0 64 0C42.7 0 21.3 0 10.7 0L0 0Z" fill="#656d4a"></path><path d="M0 82L10.7 78.5C21.3 75 42.7 68 64 73.3C85.3 78.7 106.7 96.3 128 97.3C149.3 98.3 170.7 82.7 192 83.2C213.3 83.7 234.7 100.3 256 104.3C277.3 108.3 298.7 99.7 320 91.2C341.3 82.7 362.7 74.3 384 72.3C405.3 70.3 426.7 74.7 448 81.8C469.3 89 490.7 99 512 106.8C533.3 114.7 554.7 120.3 576 112.8C597.3 105.3 618.7 84.7 640 81.3C661.3 78 682.7 92 704 93C725.3 94 746.7 82 768 75.3C789.3 68.7 810.7 67.3 832 71.8C853.3 76.3 874.7 86.7 896 88.7C917.3 90.7 938.7 84.3 949.3 81.2L960 78L960 17L949.3 21.8C938.7 26.7 917.3 36.3 896 36.8C874.7 37.3 853.3 28.7 832 22.2C810.7 15.7 789.3 11.3 768 9.2C746.7 7 725.3 7 704 10.5C682.7 14 661.3 21 640 29C618.7 37 597.3 46 576 58.3C554.7 70.7 533.3 86.3 512 88.3C490.7 90.3 469.3 78.7 448 70.5C426.7 62.3 405.3 57.7 384 50.8C362.7 44 341.3 35 320 29.5C298.7 24 277.3 22 256 24.8C234.7 27.7 213.3 35.3 192 32.7C170.7 30 149.3 17 128 13.5C106.7 10 85.3 16 64 17C42.7 18 21.3 14 10.7 12L0 10Z" fill="#797c5a"></path><path d="M0 96L10.7 97.3C21.3 98.7 42.7 101.3 64 106.3C85.3 111.3 106.7 118.7 128 115.5C149.3 112.3 170.7 98.7 192 101.8C213.3 105 234.7 125 256 131.8C277.3 138.7 298.7 132.3 320 125.3C341.3 118.3 362.7 110.7 384 104.7C405.3 98.7 426.7 94.3 448 97.3C469.3 100.3 490.7 110.7 512 119.3C533.3 128 554.7 135 576 129.2C597.3 123.3 618.7 104.7 640 104.7C661.3 104.7 682.7 123.3 704 125.7C725.3 128 746.7 114 768 108.3C789.3 102.7 810.7 105.3 832 105.2C853.3 105 874.7 102 896 102.2C917.3 102.3 938.7 105.7 949.3 107.3L960 109L960 76L949.3 79.2C938.7 82.3 917.3 88.7 896 86.7C874.7 84.7 853.3 74.3 832 69.8C810.7 65.3 789.3 66.7 768 73.3C746.7 80 725.3 92 704 91C682.7 90 661.3 76 640 79.3C618.7 82.7 597.3 103.3 576 110.8C554.7 118.3 533.3 112.7 512 104.8C490.7 97 469.3 87 448 79.8C426.7 72.7 405.3 68.3 384 70.3C362.7 72.3 341.3 80.7 320 89.2C298.7 97.7 277.3 106.3 256 102.3C234.7 98.3 213.3 81.7 192 81.2C170.7 80.7 149.3 96.3 128 95.3C106.7 94.3 85.3 76.7 64 71.3C42.7 66 21.3 73 10.7 76.5L0 80Z" fill="#8d8c6b"></path><path d="M0 151L10.7 150C21.3 149 42.7 147 64 142.8C85.3 138.7 106.7 132.3 128 129.7C149.3 127 170.7 128 192 132C213.3 136 234.7 143 256 144.2C277.3 145.3 298.7 140.7 320 136.2C341.3 131.7 362.7 127.3 384 123.8C405.3 120.3 426.7 117.7 448 118.8C469.3 120 490.7 125 512 129.5C533.3 134 554.7 138 576 137.3C597.3 136.7 618.7 131.3 640 131.7C661.3 132 682.7 138 704 139.7C725.3 141.3 746.7 138.7 768 137.8C789.3 137 810.7 138 832 134.5C853.3 131 874.7 123 896 123.5C917.3 124 938.7 133 949.3 137.5L960 142L960 107L949.3 105.3C938.7 103.7 917.3 100.3 896 100.2C874.7 100 853.3 103 832 103.2C810.7 103.3 789.3 100.7 768 106.3C746.7 112 725.3 126 704 123.7C682.7 121.3 661.3 102.7 640 102.7C618.7 102.7 597.3 121.3 576 127.2C554.7 133 533.3 126 512 117.3C490.7 108.7 469.3 98.3 448 95.3C426.7 92.3 405.3 96.7 384 102.7C362.7 108.7 341.3 116.3 320 123.3C298.7 130.3 277.3 136.7 256 129.8C234.7 123 213.3 103 192 99.8C170.7 96.7 149.3 110.3 128 113.5C106.7 116.7 85.3 109.3 64 104.3C42.7 99.3 21.3 96.7 10.7 95.3L0 94Z" fill="#a29c7d"></path><path d="M0 151L10.7 151C21.3 151 42.7 151 64 151C85.3 151 106.7 151 128 151C149.3 151 170.7 151 192 151C213.3 151 234.7 151 256 151C277.3 151 298.7 151 320 151C341.3 151 362.7 151 384 151C405.3 151 426.7 151 448 151C469.3 151 490.7 151 512 151C533.3 151 554.7 151 576 151C597.3 151 618.7 151 640 151C661.3 151 682.7 151 704 151C725.3 151 746.7 151 768 151C789.3 151 810.7 151 832 151C853.3 151 874.7 151 896 151C917.3 151 938.7 151 949.3 151L960 151L960 140L949.3 135.5C938.7 131 917.3 122 896 121.5C874.7 121 853.3 129 832 132.5C810.7 136 789.3 135 768 135.8C746.7 136.7 725.3 139.3 704 137.7C682.7 136 661.3 130 640 129.7C618.7 129.3 597.3 134.7 576 135.3C554.7 136 533.3 132 512 127.5C490.7 123 469.3 118 448 116.8C426.7 115.7 405.3 118.3 384 121.8C362.7 125.3 341.3 129.7 320 134.2C298.7 138.7 277.3 143.3 256 142.2C234.7 141 213.3 134 192 130C170.7 126 149.3 125 128 127.7C106.7 130.3 85.3 136.7 64 140.8C42.7 145 21.3 147 10.7 148L0 149Z" fill="#b6ad90"></path></svg>