<svg id="visual" viewBox="0 0 960 150" width="960" height="150" xmlns="http://www.w3.org/2000/svg" xmlns:xlink="http://www.w3.org/1999/xlink" version="1.1"><path d="M0 0L10.7 3C21.3 6 42.7 12 64 12.5C85.3 13 106.7 8 128 7.5C149.3 7 170.7 11 192 13C213.3 15 234.7 15 256 16.7C277.3 18.3 298.7 21.7 320 22.8C341.3 24 362.7 23 384 22.3C405.3 21.7 426.7 21.3 448 20.8C469.3 20.3 490.7 19.7 512 19.7C533.3 19.7 554.7 20.3 576 21.2C597.3 22 618.7 23 640 23.7C661.3 24.3 682.7 24.7 704 20.7C725.3 16.7 746.7 8.3 768 5.7C789.3 3 810.7 6 832 10C853.3 14 874.7 19 896 21.7C917.3 24.3 938.7 24.7 949.3 24.8L960 25L960 0L949.3 0C938.7 0 917.3 0 896 0C874.7 0 853.3 0 832 0C810.7 0 789.3 0 768 0C746.7 0 725.3 0 704 0C682.7 0 661.3 0 640 0C618.7 0 597.3 0 576 0C554.7 0 533.3 0 512 0C490.7 0 469.3 0 448 0C426.7 0 405.3 0 384 0C362.7 0 341.3 0 320 0C298.7 0 277.3 0 256 0C234.7 0 213.3 0 192 0C170.7 0 149.3 0 128 0C106.7 0 85.3 0 64 0C42.7 0 21.3 0 10.7 0L0 0Z" fill="#656d4a"></path><path d="M0 12L10.7 15.5C21.3 19 42.7 26 64 34.7C85.3 43.3 106.7 53.7 128 59.7C149.3 65.7 170.7 67.3 192 70.2C213.3 73 234.7 77 256 76.5C277.3 76 298.7 71 320 69.7C341.3 68.3 362.7 70.7 384 71.8C405.3 73 426.7 73 448 68.8C469.3 64.7 490.7 56.3 512 61.3C533.3 66.3 554.7 84.7 576 84.7C597.3 84.7 618.7 66.3 640 58.2C661.3 50 682.7 52 704 56C725.3 60 746.7 66 768 64.5C789.3 63 810.7 54 832 50C853.3 46 874.7 47 896 53.8C917.3 60.7 938.7 73.3 949.3 79.7L960 86L960 23L949.3 22.8C938.7 22.7 917.3 22.3 896 19.7C874.7 17 853.3 12 832 8.3C810.7 4.7 789.3 2.3 768 5C746.7 7.7 725.3 15.3 704 19C682.7 22.7 661.3 22.3 640 21.7C618.7 21 597.3 20 576 19.2C554.7 18.3 533.3 17.7 512 17.7C490.7 17.7 469.3 18.3 448 18.8C426.7 19.3 405.3 19.7 384 20.3C362.7 21 341.3 22 320 20.8C298.7 19.7 277.3 16.3 256 14.7C234.7 13 213.3 13 192 11C170.7 9 149.3 5 128 5.5C106.7 6 85.3 11 64 10.8C42.7 10.7 21.3 5.3 10.7 2.7L0 0Z" fill="#5b6344"></path><path d="M0 84L10.7 92C21.3 100 42.7 116 64 117.2C85.3 118.3 106.7 104.7 128 96.2C149.3 87.7 170.7 84.3 192 86.3C213.3 88.3 234.7 95.7 256 94.3C277.3 93 298.7 83 320 84.5C341.3 86 362.7 99 384 102.3C405.3 105.7 426.7 99.3 448 94.3C469.3 89.3 490.7 85.7 512 87.8C533.3 90 554.7 98 576 98C597.3 98 618.7 90 640 95.5C661.3 101 682.7 120 704 118.5C725.3 117 746.7 95 768 92.8C789.3 90.7 810.7 108.3 832 110.8C853.3 113.3 874.7 100.7 896 100.2C917.3 99.7 938.7 111.3 949.3 117.2L960 123L960 84L949.3 77.7C938.7 71.3 917.3 58.7 896 51.8C874.7 45 853.3 44 832 48C810.7 52 789.3 61 768 62.5C746.7 64 725.3 58 704 54C682.7 50 661.3 48 640 56.2C618.7 64.3 597.3 82.7 576 82.7C554.7 82.7 533.3 64.3 512 59.3C490.7 54.3 469.3 62.7 448 66.8C426.7 71 405.3 71 384 69.8C362.7 68.7 341.3 66.3 320 67.7C298.7 69 277.3 74 256 74.5C234.7 75 213.3 71 192 68.2C170.7 65.3 149.3 63.7 128 57.7C106.7 51.7 85.3 41.3 64 32.7C42.7 24 21.3 17 10.7 13.5L0 10Z" fill="#525a3e"></path><path d="M0 127L10.7 129.8C21.3 132.7 42.7 138.3 64 134.8C85.3 131.3 106.7 118.7 128 112.3C149.3 106 170.7 106 192 112.5C213.3 119 234.7 132 256 132.5C277.3 133 298.7 121 320 121.3C341.3 121.7 362.7 134.3 384 134.8C405.3 135.3 426.7 123.7 448 116.2C469.3 108.7 490.7 105.3 512 109.3C533.3 113.3 554.7 124.7 576 125C597.3 125.3 618.7 114.7 640 116.7C661.3 118.7 682.7 133.3 704 132.2C725.3 131 746.7 114 768 110.3C789.3 106.7 810.7 116.3 832 121.2C853.3 126 874.7 126 896 126.2C917.3 126.3 938.7 126.7 949.3 126.8L960 127L960 121L949.3 115.2C938.7 109.3 917.3 97.7 896 98.2C874.7 98.7 853.3 111.3 832 108.8C810.7 106.3 789.3 88.7 768 90.8C746.7 93 725.3 115 704 116.5C682.7 118 661.3 99 640 93.5C618.7 88 597.3 96 576 96C554.7 96 533.3 88 512 85.8C490.7 83.7 469.3 87.3 448 92.3C426.7 97.3 405.3 103.7 384 100.3C362.7 97 341.3 84 320 82.5C298.7 81 277.3 91 256 92.3C234.7 93.7 213.3 86.3 192 84.3C170.7 82.3 149.3 85.7 128 94.2C106.7 102.7 85.3 116.3 64 115.2C42.7 114 21.3 98 10.7 90L0 82Z" fill="#495138"></path><path d="M0 151L10.7 151C21.3 151 42.7 151 64 151C85.3 151 106.7 151 128 151C149.3 151 170.7 151 192 151C213.3 151 234.7 151 256 151C277.3 151 298.7 151 320 151C341.3 151 362.7 151 384 151C405.3 151 426.7 151 448 151C469.3 151 490.7 151 512 151C533.3 151 554.7 151 576 151C597.3 151 618.7 151 640 151C661.3 151 682.7 151 704 151C725.3 151 746.7 151 768 151C789.3 151 810.7 151 832 151C853.3 151 874.7 151 896 151C917.3 151 938.7 151 949.3 151L960 151L960 125L949.3 124.8C938.7 124.7 917.3 124.3 896 124.2C874.7 124 853.3 124 832 119.2C810.7 114.3 789.3 104.7 768 108.3C746.7 112 725.3 129 704 130.2C682.7 131.3 661.3 116.7 640 114.7C618.7 112.7 597.3 123.3 576 123C554.7 122.7 533.3 111.3 512 107.3C490.7 103.3 469.3 106.7 448 114.2C426.7 121.7 405.3 133.3 384 132.8C362.7 132.3 341.3 119.7 320 119.3C298.7 119 277.3 131 256 130.5C234.7 130 213.3 117 192 110.5C170.7 104 149.3 104 128 110.3C106.7 116.7 85.3 129.3 64 132.8C42.7 136.3 21.3 130.7 10.7 127.8L0 125Z" fill="#414833"></path></svg>