<svg id="visual" viewBox="0 0 960 150" width="960" height="150" xmlns="http://www.w3.org/2000/svg" xmlns:xlink="http://www.w3.org/1999/xlink" version="1.1"><path d="M0 13L10.7 17.3C21.3 21.7 42.7 30.3 64 29.3C85.3 28.3 106.7 17.7 128 24.3C149.3 31 170.7 55 192 62C213.3 69 234.7 59 256 50.3C277.3 41.7 298.7 34.3 320 33.2C341.3 32 362.7 37 384 44C405.3 51 426.7 60 448 63.3C469.3 66.7 490.7 64.3 512 61.8C533.3 59.3 554.7 56.7 576 51.8C597.3 47 618.7 40 640 36.5C661.3 33 682.7 33 704 31.7C725.3 30.3 746.7 27.7 768 24.8C789.3 22 810.7 19 832 17.3C853.3 15.7 874.7 15.3 896 16.3C917.3 17.3 938.7 19.7 949.3 20.8L960 22L960 0L949.3 0C938.7 0 917.3 0 896 0C874.7 0 853.3 0 832 0C810.7 0 789.3 0 768 0C746.7 0 725.3 0 704 0C682.7 0 661.3 0 640 0C618.7 0 597.3 0 576 0C554.7 0 533.3 0 512 0C490.7 0 469.3 0 448 0C426.7 0 405.3 0 384 0C362.7 0 341.3 0 320 0C298.7 0 277.3 0 256 0C234.7 0 213.3 0 192 0C170.7 0 149.3 0 128 0C106.7 0 85.3 0 64 0C42.7 0 21.3 0 10.7 0L0 0Z" fill="#936639"></path><path d="M0 25L10.7 30.8C21.3 36.7 42.7 48.3 64 49.8C85.3 51.3 106.7 42.7 128 47C149.3 51.3 170.7 68.7 192 75C213.3 81.3 234.7 76.7 256 67.8C277.3 59 298.7 46 320 44.3C341.3 42.7 362.7 52.3 384 64C405.3 75.7 426.7 89.3 448 95.7C469.3 102 490.7 101 512 96.5C533.3 92 554.7 84 576 78.5C597.3 73 618.7 70 640 65.5C661.3 61 682.7 55 704 54.2C725.3 53.3 746.7 57.7 768 60.5C789.3 63.3 810.7 64.7 832 63.8C853.3 63 874.7 60 896 58.7C917.3 57.3 938.7 57.7 949.3 57.8L960 58L960 20L949.3 18.8C938.7 17.7 917.3 15.3 896 14.3C874.7 13.3 853.3 13.7 832 15.3C810.7 17 789.3 20 768 22.8C746.7 25.7 725.3 28.3 704 29.7C682.7 31 661.3 31 640 34.5C618.7 38 597.3 45 576 49.8C554.7 54.7 533.3 57.3 512 59.8C490.7 62.3 469.3 64.7 448 61.3C426.7 58 405.3 49 384 42C362.7 35 341.3 30 320 31.2C298.7 32.3 277.3 39.7 256 48.3C234.7 57 213.3 67 192 60C170.7 53 149.3 29 128 22.3C106.7 15.7 85.3 26.3 64 27.3C42.7 28.3 21.3 19.7 10.7 15.3L0 11Z" fill="#9b784d"></path><path d="M0 69L10.7 69C21.3 69 42.7 69 64 70.5C85.3 72 106.7 75 128 80.2C149.3 85.3 170.7 92.7 192 93.8C213.3 95 234.7 90 256 82.8C277.3 75.7 298.7 66.3 320 63.8C341.3 61.3 362.7 65.7 384 75.3C405.3 85 426.7 100 448 110C469.3 120 490.7 125 512 123.8C533.3 122.7 554.7 115.3 576 110.3C597.3 105.3 618.7 102.7 640 92.8C661.3 83 682.7 66 704 64.5C725.3 63 746.7 77 768 83.8C789.3 90.7 810.7 90.3 832 88.2C853.3 86 874.7 82 896 82.2C917.3 82.3 938.7 86.7 949.3 88.8L960 91L960 56L949.3 55.8C938.7 55.7 917.3 55.3 896 56.7C874.7 58 853.3 61 832 61.8C810.7 62.7 789.3 61.3 768 58.5C746.7 55.7 725.3 51.3 704 52.2C682.7 53 661.3 59 640 63.5C618.7 68 597.3 71 576 76.5C554.7 82 533.3 90 512 94.5C490.7 99 469.3 100 448 93.7C426.7 87.3 405.3 73.7 384 62C362.7 50.3 341.3 40.7 320 42.3C298.7 44 277.3 57 256 65.8C234.7 74.7 213.3 79.3 192 73C170.7 66.7 149.3 49.3 128 45C106.7 40.7 85.3 49.3 64 47.8C42.7 46.3 21.3 34.7 10.7 28.8L0 23Z" fill="#a38a62"></path><path d="M0 136L10.7 135.3C21.3 134.7 42.7 133.3 64 135.7C85.3 138 106.7 144 128 142.7C149.3 141.3 170.7 132.7 192 129.2C213.3 125.7 234.7 127.3 256 129.7C277.3 132 298.7 135 320 133.2C341.3 131.3 362.7 124.7 384 121.7C405.3 118.7 426.7 119.3 448 122.8C469.3 126.3 490.7 132.7 512 136.8C533.3 141 554.7 143 576 139.8C597.3 136.7 618.7 128.3 640 125.8C661.3 123.3 682.7 126.7 704 127.7C725.3 128.7 746.7 127.3 768 129.7C789.3 132 810.7 138 832 137C853.3 136 874.7 128 896 125.7C917.3 123.3 938.7 126.7 949.3 128.3L960 130L960 89L949.3 86.8C938.7 84.7 917.3 80.3 896 80.2C874.7 80 853.3 84 832 86.2C810.7 88.3 789.3 88.7 768 81.8C746.7 75 725.3 61 704 62.5C682.7 64 661.3 81 640 90.8C618.7 100.7 597.3 103.3 576 108.3C554.7 113.3 533.3 120.7 512 121.8C490.7 123 469.3 118 448 108C426.7 98 405.3 83 384 73.3C362.7 63.7 341.3 59.3 320 61.8C298.7 64.3 277.3 73.7 256 80.8C234.7 88 213.3 93 192 91.8C170.7 90.7 149.3 83.3 128 78.2C106.7 73 85.3 70 64 68.5C42.7 67 21.3 67 10.7 67L0 67Z" fill="#ac9c78"></path><path d="M0 151L10.7 151C21.3 151 42.7 151 64 151C85.3 151 106.7 151 128 151C149.3 151 170.7 151 192 151C213.3 151 234.7 151 256 151C277.3 151 298.7 151 320 151C341.3 151 362.7 151 384 151C405.3 151 426.7 151 448 151C469.3 151 490.7 151 512 151C533.3 151 554.7 151 576 151C597.3 151 618.7 151 640 151C661.3 151 682.7 151 704 151C725.3 151 746.7 151 768 151C789.3 151 810.7 151 832 151C853.3 151 874.7 151 896 151C917.3 151 938.7 151 949.3 151L960 151L960 128L949.3 126.3C938.7 124.7 917.3 121.3 896 123.7C874.7 126 853.3 134 832 135C810.7 136 789.3 130 768 127.7C746.7 125.3 725.3 126.7 704 125.7C682.7 124.7 661.3 121.3 640 123.8C618.7 126.3 597.3 134.7 576 137.8C554.7 141 533.3 139 512 134.8C490.7 130.7 469.3 124.3 448 120.8C426.7 117.3 405.3 116.7 384 119.7C362.7 122.7 341.3 129.3 320 131.2C298.7 133 277.3 130 256 127.7C234.7 125.3 213.3 123.7 192 127.2C170.7 130.7 149.3 139.3 128 140.7C106.7 142 85.3 136 64 133.7C42.7 131.3 21.3 132.7 10.7 133.3L0 134Z" fill="#b6ad90"></path></svg>