<svg id="visual" viewBox="0 0 960 150" width="960" height="150" xmlns="http://www.w3.org/2000/svg" xmlns:xlink="http://www.w3.org/1999/xlink" version="1.1"><path d="M0 62L8.8 61.8C17.7 61.7 35.3 61.3 53.2 53C71 44.7 89 28.3 106.8 24.2C124.7 20 142.3 28 160 36.7C177.7 45.3 195.3 54.7 213.2 53.8C231 53 249 42 266.8 42.3C284.7 42.7 302.3 54.3 320 56.3C337.7 58.3 355.3 50.7 373.2 39.7C391 28.7 409 14.3 426.8 11.8C444.7 9.3 462.3 18.7 480 28.8C497.7 39 515.3 50 533.2 51.3C551 52.7 569 44.3 586.8 48.2C604.7 52 622.3 68 640 77C657.7 86 675.3 88 693.2 81.7C711 75.3 729 60.7 746.8 55.3C764.7 50 782.3 54 800 50.8C817.7 47.7 835.3 37.3 853.2 32.3C871 27.3 889 27.7 906.8 26.7C924.7 25.7 942.3 23.3 951.2 22.2L960 21L960 0L951.2 0C942.3 0 924.7 0 906.8 0C889 0 871 0 853.2 0C835.3 0 817.7 0 800 0C782.3 0 764.7 0 746.8 0C729 0 711 0 693.2 0C675.3 0 657.7 0 640 0C622.3 0 604.7 0 586.8 0C569 0 551 0 533.2 0C515.3 0 497.7 0 480 0C462.3 0 444.7 0 426.8 0C409 0 391 0 373.2 0C355.3 0 337.7 0 320 0C302.3 0 284.7 0 266.8 0C249 0 231 0 213.2 0C195.3 0 177.7 0 160 0C142.3 0 124.7 0 106.8 0C89 0 71 0 53.2 0C35.3 0 17.7 0 8.8 0L0 0Z" fill="#333d29"></path><path d="M0 75L8.8 77.5C17.7 80 35.3 85 53.2 85C71 85 89 80 106.8 75.2C124.7 70.3 142.3 65.7 160 68.3C177.7 71 195.3 81 213.2 80.5C231 80 249 69 266.8 65.3C284.7 61.7 302.3 65.3 320 64.8C337.7 64.3 355.3 59.7 373.2 57.7C391 55.7 409 56.3 426.8 59.2C444.7 62 462.3 67 480 68.7C497.7 70.3 515.3 68.7 533.2 66.2C551 63.7 569 60.3 586.8 64.8C604.7 69.3 622.3 81.7 640 88.2C657.7 94.7 675.3 95.3 693.2 90.8C711 86.3 729 76.7 746.8 71C764.7 65.3 782.3 63.7 800 62.8C817.7 62 835.3 62 853.2 73.2C871 84.3 889 106.7 906.8 112.5C924.7 118.3 942.3 107.7 951.2 102.3L960 97L960 19L951.2 20.2C942.3 21.3 924.7 23.7 906.8 24.7C889 25.7 871 25.3 853.2 30.3C835.3 35.3 817.7 45.7 800 48.8C782.3 52 764.7 48 746.8 53.3C729 58.7 711 73.3 693.2 79.7C675.3 86 657.7 84 640 75C622.3 66 604.7 50 586.8 46.2C569 42.3 551 50.7 533.2 49.3C515.3 48 497.7 37 480 27.2C462.3 17.3 444.7 8.7 426.8 11.2C409 13.7 391 27.3 373.2 38C355.3 48.7 337.7 56.3 320 54.3C302.3 52.3 284.7 40.7 266.8 40.3C249 40 231 51 213.2 51.8C195.3 52.7 177.7 43.3 160 34.7C142.3 26 124.7 18 106.8 22.2C89 26.3 71 42.7 53.2 51C35.3 59.3 17.7 59.7 8.8 59.8L0 60Z" fill="#363f2b"></path><path d="M0 96L8.8 95.2C17.7 94.3 35.3 92.7 53.2 93.2C71 93.7 89 96.3 106.8 99.2C124.7 102 142.3 105 160 104.2C177.7 103.3 195.3 98.7 213.2 97.7C231 96.7 249 99.3 266.8 100.2C284.7 101 302.3 100 320 99.5C337.7 99 355.3 99 373.2 94.2C391 89.3 409 79.7 426.8 83.3C444.7 87 462.3 104 480 107.5C497.7 111 515.3 101 533.2 98C551 95 569 99 586.8 104.5C604.7 110 622.3 117 640 116.8C657.7 116.7 675.3 109.3 693.2 105.2C711 101 729 100 746.8 97.2C764.7 94.3 782.3 89.7 800 88.3C817.7 87 835.3 89 853.2 97.5C871 106 889 121 906.8 124.5C924.7 128 942.3 120 951.2 116L960 112L960 95L951.2 100.3C942.3 105.7 924.7 116.3 906.8 110.5C889 104.7 871 82.3 853.2 71.2C835.3 60 817.7 60 800 60.8C782.3 61.7 764.7 63.3 746.8 69C729 74.7 711 84.3 693.2 88.8C675.3 93.3 657.7 92.7 640 86.2C622.3 79.7 604.7 67.3 586.8 62.8C569 58.3 551 61.7 533.2 64.2C515.3 66.7 497.7 68.3 480 66.7C462.3 65 444.7 60 426.8 57.2C409 54.3 391 53.7 373.2 55.7C355.3 57.7 337.7 62.3 320 62.8C302.3 63.3 284.7 59.7 266.8 63.3C249 67 231 78 213.2 78.5C195.3 79 177.7 69 160 66.3C142.3 63.7 124.7 68.3 106.8 73.2C89 78 71 83 53.2 83C35.3 83 17.7 78 8.8 75.5L0 73Z" fill="#39412d"></path><path d="M0 127L8.8 122C17.7 117 35.3 107 53.2 103.8C71 100.7 89 104.3 106.8 108.2C124.7 112 142.3 116 160 114.2C177.7 112.3 195.3 104.7 213.2 101.8C231 99 249 101 266.8 103C284.7 105 302.3 107 320 106.8C337.7 106.7 355.3 104.3 373.2 102.3C391 100.3 409 98.7 426.8 102.2C444.7 105.7 462.3 114.3 480 113.3C497.7 112.3 515.3 101.7 533.2 99.3C551 97 569 103 586.8 110C604.7 117 622.3 125 640 129.5C657.7 134 675.3 135 693.2 131.5C711 128 729 120 746.8 113.3C764.7 106.7 782.3 101.3 800 100.8C817.7 100.3 835.3 104.7 853.2 113.2C871 121.7 889 134.3 906.8 137.2C924.7 140 942.3 133 951.2 129.5L960 126L960 110L951.2 114C942.3 118 924.7 126 906.8 122.5C889 119 871 104 853.2 95.5C835.3 87 817.7 85 800 86.3C782.3 87.7 764.7 92.3 746.8 95.2C729 98 711 99 693.2 103.2C675.3 107.3 657.7 114.7 640 114.8C622.3 115 604.7 108 586.8 102.5C569 97 551 93 533.2 96C515.3 99 497.7 109 480 105.5C462.3 102 444.7 85 426.8 81.3C409 77.7 391 87.3 373.2 92.2C355.3 97 337.7 97 320 97.5C302.3 98 284.7 99 266.8 98.2C249 97.3 231 94.7 213.2 95.7C195.3 96.7 177.7 101.3 160 102.2C142.3 103 124.7 100 106.8 97.2C89 94.3 71 91.7 53.2 91.2C35.3 90.7 17.7 92.3 8.8 93.2L0 94Z" fill="#3b432f"></path><path d="M0 133L8.8 129.3C17.7 125.7 35.3 118.3 53.2 117.3C71 116.3 89 121.7 106.8 124.2C124.7 126.7 142.3 126.3 160 125.8C177.7 125.3 195.3 124.7 213.2 121.7C231 118.7 249 113.3 266.8 113.3C284.7 113.3 302.3 118.7 320 121.2C337.7 123.7 355.3 123.3 373.2 122.7C391 122 409 121 426.8 122.2C444.7 123.3 462.3 126.7 480 126.2C497.7 125.7 515.3 121.3 533.2 120.7C551 120 569 123 586.8 128.2C604.7 133.3 622.3 140.7 640 143.3C657.7 146 675.3 144 693.2 138C711 132 729 122 746.8 118.3C764.7 114.7 782.3 117.3 800 119.8C817.7 122.3 835.3 124.7 853.2 129.3C871 134 889 141 906.8 142.8C924.7 144.7 942.3 141.3 951.2 139.7L960 138L960 124L951.2 127.5C942.3 131 924.7 138 906.8 135.2C889 132.3 871 119.7 853.2 111.2C835.3 102.7 817.7 98.3 800 98.8C782.3 99.3 764.7 104.7 746.8 111.3C729 118 711 126 693.2 129.5C675.3 133 657.7 132 640 127.5C622.3 123 604.7 115 586.8 108C569 101 551 95 533.2 97.3C515.3 99.7 497.7 110.3 480 111.3C462.3 112.3 444.7 103.7 426.8 100.2C409 96.7 391 98.3 373.2 100.3C355.3 102.3 337.7 104.7 320 104.8C302.3 105 284.7 103 266.8 101C249 99 231 97 213.2 99.8C195.3 102.7 177.7 110.3 160 112.2C142.3 114 124.7 110 106.8 106.2C89 102.3 71 98.7 53.2 101.8C35.3 105 17.7 115 8.8 120L0 125Z" fill="#3e4631"></path><path d="M0 151L8.8 151C17.7 151 35.3 151 53.2 151C71 151 89 151 106.8 151C124.7 151 142.3 151 160 151C177.7 151 195.3 151 213.2 151C231 151 249 151 266.8 151C284.7 151 302.3 151 320 151C337.7 151 355.3 151 373.2 151C391 151 409 151 426.8 151C444.7 151 462.3 151 480 151C497.7 151 515.3 151 533.2 151C551 151 569 151 586.8 151C604.7 151 622.3 151 640 151C657.7 151 675.3 151 693.2 151C711 151 729 151 746.8 151C764.7 151 782.3 151 800 151C817.7 151 835.3 151 853.2 151C871 151 889 151 906.8 151C924.7 151 942.3 151 951.2 151L960 151L960 136L951.2 137.7C942.3 139.3 924.7 142.7 906.8 140.8C889 139 871 132 853.2 127.3C835.3 122.7 817.7 120.3 800 117.8C782.3 115.3 764.7 112.7 746.8 116.3C729 120 711 130 693.2 136C675.3 142 657.7 144 640 141.3C622.3 138.7 604.7 131.3 586.8 126.2C569 121 551 118 533.2 118.7C515.3 119.3 497.7 123.7 480 124.2C462.3 124.7 444.7 121.3 426.8 120.2C409 119 391 120 373.2 120.7C355.3 121.3 337.7 121.7 320 119.2C302.3 116.7 284.7 111.3 266.8 111.3C249 111.3 231 116.7 213.2 119.7C195.3 122.7 177.7 123.3 160 123.8C142.3 124.3 124.7 124.7 106.8 122.2C89 119.7 71 114.3 53.2 115.3C35.3 116.3 17.7 123.7 8.8 127.3L0 131Z" fill="#414833"></path></svg>